<?xml version="1.0" encoding="UTF-8"?>
<svg id="Layer_1" data-name="Layer 1" xmlns="http://www.w3.org/2000/svg" viewBox="0 0 79.91 98.4">
  <defs>
    <style>
      .cls-1 {
        fill: #ffd103;
      }
    </style>
  </defs>
  <g>
    <path d="M78.4,78.36c1.49,3.99-2.72,7.71-6.49,5.75l-15.15-7.89,3.64-6.31,3.67,1.91,5.09,2.65-1.97-5.28-2.51-6.7,3.53-6.11c.41-.71.79-1.43,1.15-2.16,2.14-4.39,3.26-9.24,3.26-14.27,0-8.73-3.4-16.93-9.57-23.1-6.17-6.17-14.39-9.57-23.12-9.57-8.66,0-17.01,3.47-23.13,9.6-6.15,6.17-9.53,14.36-9.53,23.07s3.4,16.93,9.57,23.1c6.17,6.17,14.38,9.57,23.1,9.57.9,0,1.8-.04,2.69-.11l-4.25,7.36C17.05,79.06,0,61.5,0,39.95S17.94-.06,40.06,0c22.06.06,40.02,18.2,39.85,40.26-.06,8.44-2.74,16.26-7.28,22.68l5.77,15.41Z"/>
    <path class="cls-1" d="M39.96,10.61h0c22.53,0,36.61,24.39,25.34,43.9l-25.34,43.9-8.94-15.48c2.88.6,5.87.91,8.94.91l19.03-32.97c2.05-3.55,3.05-7.36,2.99-11.32-.06-3.7-1.1-7.39-2.99-10.66-1.89-3.27-4.56-6.01-7.74-7.92-3.4-2.04-7.2-3.08-11.3-3.08s-7.9,1.03-11.3,3.08c-3.18,1.91-5.85,4.64-7.74,7.92-1.89,3.27-2.92,6.96-2.99,10.66-.07,3.96.94,7.77,2.99,11.32l9.79,16.96c-4.29-1.42-8.22-3.83-11.5-7.11-.72-.72-1.38-1.48-2-2.27-.9-1.16-1.71-2.39-2.44-3.66l-.15-.27C3.35,34.99,17.43,10.61,39.96,10.61Z"/>
  </g>
  <circle cx="39.96" cy="39.91" r="10.75"/>
</svg>